<svg width="21" height="15" viewBox="0 0 21 15" fill="none" xmlns="http://www.w3.org/2000/svg">
<path d="M1 1V13.4354H19.5208V1H1Z" fill="#4758A9"/>
<path d="M1 1L19.5208 13.4354L1 1ZM19.5208 1L1 13.4354Z" fill="black"/>
<path d="M19.5208 1L1 13.4354M1 1L19.5208 13.4354L1 1Z" stroke="white" stroke-width="2.35107"/>
<path d="M1 1L19.5208 13.4354L1 1ZM19.5208 1L1 13.4354Z" fill="black"/>
<path d="M19.5208 1L1 13.4354M1 1L19.5208 13.4354L1 1Z" stroke="#ED5565" stroke-width="1.56738"/>
<path d="M10.2604 1V13.4354V1ZM1 7.21771H19.5208Z" fill="black"/>
<path d="M1 7.21771H19.5208M10.2604 1V13.4354V1Z" stroke="white" stroke-width="3.91845"/>
<path d="M10.2604 1V13.4354V1ZM1 7.21771H19.5208Z" fill="black"/>
<path d="M1 7.21771H19.5208M10.2604 1V13.4354V1Z" stroke="#ED5565" stroke-width="2.35107"/>
</svg>
