<svg width="19" height="13" viewBox="0 0 19 13" fill="none" xmlns="http://www.w3.org/2000/svg">
<path d="M18.5208 0H0V12.4354H18.5208V0Z" fill="#ED5565"/>
<path d="M0 1.43488H18.5208H0ZM18.5208 3.34802H0H18.5208ZM0 5.26116H18.5208H0ZM18.5208 7.1743H0H18.5208ZM0 9.08744H18.5208H0ZM18.5208 11.0006H0Z" fill="black"/>
<path d="M18.5208 11.0006H0M0 1.43488H18.5208H0ZM18.5208 3.34802H0H18.5208ZM0 5.26116H18.5208H0ZM18.5208 7.1743H0H18.5208ZM0 9.08744H18.5208H0Z" stroke="#F5F7FA" stroke-width="0.846916"/>
<path d="M9.45092 0H0V6.75077H9.45092V0Z" fill="#4758A9"/>
<path d="M0.787577 0.286987L1.01248 0.979169L0.423676 0.551377H1.15148L0.562673 0.979169L0.787577 0.286987Z" fill="white"/>
</svg>
